<?xml version="1.0" standalone="no"?>
<!DOCTYPE svg PUBLIC "-//W3C//DTD SVG 20010904//EN"
 "http://www.w3.org/TR/2001/REC-SVG-20010904/DTD/svg10.dtd">
<svg version="1.0" xmlns="http://www.w3.org/2000/svg"
 width="840.000000pt" height="840.000000pt" viewBox="0 0 840.000000 840.000000"
 preserveAspectRatio="xMidYMid meet">
<metadata>
Created by potrace 1.11, written by Peter Selinger 2001-2013
</metadata>
<g transform="translate(0.000000,840.000000) scale(0.100000,-0.100000)"
fill="#000000" stroke="none">
<path d="M679 7596 c-3 -3 -18 -7 -34 -10 -59 -11 -71 -14 -125 -35 -199 -76
-349 -213 -442 -403 -71 -146 -97 -352 -61 -500 8 -35 16 -70 18 -79 7 -35 58
-143 92 -197 44 -69 263 -402 479 -727 87 -132 161 -244 164 -250 5 -11 60
-94 73 -110 4 -5 31 -46 59 -90 29 -44 56 -81 60 -83 5 -2 8 -8 8 -13 0 -11
72 -123 83 -127 4 -2 7 -8 7 -12 0 -5 11 -26 25 -47 14 -21 31 -47 38 -57 6
-11 20 -28 30 -38 9 -10 15 -18 12 -18 -4 0 35 -64 54 -86 4 -5 14 -21 21 -35
7 -13 16 -26 19 -29 4 -3 27 -38 51 -77 25 -40 48 -73 52 -73 5 0 8 -5 8 -10
0 -6 53 -90 117 -188 65 -97 120 -181 122 -186 2 -5 43 -69 92 -142 49 -74 89
-139 89 -144 0 -6 3 -10 8 -10 4 0 20 -21 37 -48 16 -26 103 -159 194 -297 90
-137 193 -295 229 -350 36 -55 122 -185 190 -290 69 -104 173 -262 230 -350
151 -230 278 -423 420 -640 69 -104 159 -242 200 -305 42 -63 115 -175 164
-248 48 -73 88 -135 88 -138 0 -2 8 -12 18 -22 9 -11 34 -38 55 -61 84 -90
203 -166 321 -206 99 -33 144 -39 271 -39 163 0 278 36 425 131 127 82 178
146 456 573 59 91 71 111 81 130 4 8 15 24 25 34 10 11 18 26 18 33 0 7 4 13
8 13 5 0 17 17 28 37 10 21 24 43 30 49 6 7 26 36 45 66 18 29 37 58 42 63 4
6 35 53 70 105 34 52 91 140 127 194 36 55 70 106 75 115 6 9 22 34 36 56 14
22 27 43 28 47 0 5 10 18 21 30 10 13 45 64 77 113 31 50 62 93 68 97 5 4 6 8
1 8 -5 0 0 10 11 22 11 13 30 41 44 63 13 22 31 49 41 59 10 11 18 23 18 28 0
4 16 30 35 57 19 26 35 53 35 59 0 6 4 12 8 14 7 2 37 45 97 139 5 9 19 29 29
45 51 75 192 290 196 299 3 5 40 63 83 127 43 65 77 120 77 123 0 3 10 16 21
29 12 14 27 34 33 44 6 11 33 53 60 93 27 41 49 80 49 86 0 7 3 11 5 8 4 -4
63 77 73 102 2 4 49 76 104 158 55 83 104 157 110 166 23 37 70 109 116 176
27 39 49 76 49 82 0 6 5 11 10 11 6 0 10 6 10 14 0 8 3 16 8 18 9 4 62 82 62
91 0 5 5 13 10 20 39 47 50 62 55 78 4 11 11 19 16 19 5 0 9 4 9 9 0 5 71 116
159 247 163 246 357 541 522 794 52 80 131 201 177 269 100 150 139 229 168
340 98 379 -108 789 -471 933 -142 57 166 52 -3686 55 -1944 2 -3538 1 -3540
-1z m4416 -1730 c17 -4 62 -22 100 -41 172 -83 275 -250 275 -444 0 -94 -27
-172 -96 -281 -71 -113 -335 -514 -354 -540 -11 -14 -31 -45 -46 -70 -73 -120
-396 -599 -426 -631 -55 -59 -100 -87 -208 -130 -34 -14 -217 -19 -250 -7 -8
3 -30 9 -48 13 -18 4 -35 12 -38 16 -3 5 -10 7 -15 4 -5 -4 -9 -3 -9 2 0 4
-12 14 -27 20 -52 24 -126 104 -209 230 -46 69 -84 129 -84 134 0 5 -4 9 -9 9
-5 0 -15 12 -22 28 -8 15 -68 108 -134 207 -66 99 -122 185 -125 190 -3 6 -48
75 -101 155 -307 465 -295 445 -322 541 -74 271 112 553 398 601 38 7 1720 0
1750 -6z"/>
</g>
</svg>
