<svg width="299" height="51" viewBox="0 0 299 51" fill="none" xmlns="http://www.w3.org/2000/svg">
<g filter="url(#filter0_i)">
<path d="M15.0938 34.6562L15.9688 40.6562L17.25 35.25L26.25 3.5H31.3125L40.0938 35.25L41.3438 40.75L42.3125 34.625L49.375 3.5H55.4062L44.375 49H38.9062L29.5312 15.8438L28.8125 12.375L28.0938 15.8438L18.375 49H12.9062L1.90625 3.5H7.90625L15.0938 34.6562ZM76.8438 20.375C75.9688 20.2292 75.0208 20.1562 74 20.1562C70.2083 20.1562 67.6354 21.7708 66.2812 25V49H60.5V15.1875H66.125L66.2188 19.0938C68.1146 16.0729 70.8021 14.5625 74.2812 14.5625C75.4062 14.5625 76.2604 14.7083 76.8438 15V20.375ZM88.4688 49H82.6875V15.1875H88.4688V49ZM82.2188 6.21875C82.2188 5.28125 82.5 4.48958 83.0625 3.84375C83.6458 3.19792 84.5 2.875 85.625 2.875C86.75 2.875 87.6042 3.19792 88.1875 3.84375C88.7708 4.48958 89.0625 5.28125 89.0625 6.21875C89.0625 7.15625 88.7708 7.9375 88.1875 8.5625C87.6042 9.1875 86.75 9.5 85.625 9.5C84.5 9.5 83.6458 9.1875 83.0625 8.5625C82.5 7.9375 82.2188 7.15625 82.2188 6.21875ZM105.594 7V15.1875H111.906V19.6562H105.594V40.625C105.594 41.9792 105.875 43 106.438 43.6875C107 44.3542 107.958 44.6875 109.312 44.6875C109.979 44.6875 110.896 44.5625 112.062 44.3125V49C110.542 49.4167 109.062 49.625 107.625 49.625C105.042 49.625 103.094 48.8438 101.781 47.2812C100.469 45.7188 99.8125 43.5 99.8125 40.625V19.6562H93.6562V15.1875H99.8125V7H105.594ZM132.719 49.625C128.135 49.625 124.406 48.125 121.531 45.125C118.656 42.1042 117.219 38.0729 117.219 33.0312V31.9688C117.219 28.6146 117.854 25.625 119.125 23C120.417 20.3542 122.208 18.2917 124.5 16.8125C126.812 15.3125 129.312 14.5625 132 14.5625C136.396 14.5625 139.812 16.0104 142.25 18.9062C144.688 21.8021 145.906 25.9479 145.906 31.3438V33.75H123C123.083 37.0833 124.052 39.7812 125.906 41.8438C127.781 43.8854 130.156 44.9062 133.031 44.9062C135.073 44.9062 136.802 44.4896 138.219 43.6562C139.635 42.8229 140.875 41.7188 141.938 40.3438L145.469 43.0938C142.635 47.4479 138.385 49.625 132.719 49.625ZM132 19.3125C129.667 19.3125 127.708 20.1667 126.125 21.875C124.542 23.5625 123.562 25.9375 123.188 29H140.125V28.5625C139.958 25.625 139.167 23.3542 137.75 21.75C136.333 20.125 134.417 19.3125 132 19.3125Z" fill="black"/>
<path d="M200.844 8.4375H186.219V49H180.25V8.4375H165.656V3.5H200.844V8.4375ZM217.594 49.625C213.01 49.625 209.281 48.125 206.406 45.125C203.531 42.1042 202.094 38.0729 202.094 33.0312V31.9688C202.094 28.6146 202.729 25.625 204 23C205.292 20.3542 207.083 18.2917 209.375 16.8125C211.688 15.3125 214.188 14.5625 216.875 14.5625C221.271 14.5625 224.688 16.0104 227.125 18.9062C229.562 21.8021 230.781 25.9479 230.781 31.3438V33.75H207.875C207.958 37.0833 208.927 39.7812 210.781 41.8438C212.656 43.8854 215.031 44.9062 217.906 44.9062C219.948 44.9062 221.677 44.4896 223.094 43.6562C224.51 42.8229 225.75 41.7188 226.812 40.3438L230.344 43.0938C227.51 47.4479 223.26 49.625 217.594 49.625ZM216.875 19.3125C214.542 19.3125 212.583 20.1667 211 21.875C209.417 23.5625 208.438 25.9375 208.062 29H225V28.5625C224.833 25.625 224.042 23.3542 222.625 21.75C221.208 20.125 219.292 19.3125 216.875 19.3125ZM251.062 44.9062C253.125 44.9062 254.927 44.2812 256.469 43.0312C258.01 41.7812 258.865 40.2188 259.031 38.3438H264.5C264.396 40.2812 263.729 42.125 262.5 43.875C261.271 45.625 259.625 47.0208 257.562 48.0625C255.521 49.1042 253.354 49.625 251.062 49.625C246.458 49.625 242.792 48.0938 240.062 45.0312C237.354 41.9479 236 37.7396 236 32.4062V31.4375C236 28.1458 236.604 25.2188 237.812 22.6562C239.021 20.0938 240.75 18.1042 243 16.6875C245.271 15.2708 247.948 14.5625 251.031 14.5625C254.823 14.5625 257.969 15.6979 260.469 17.9688C262.99 20.2396 264.333 23.1875 264.5 26.8125H259.031C258.865 24.625 258.031 22.8333 256.531 21.4375C255.052 20.0208 253.219 19.3125 251.031 19.3125C248.094 19.3125 245.812 20.375 244.188 22.5C242.583 24.6042 241.781 27.6562 241.781 31.6562V32.75C241.781 36.6458 242.583 39.6458 244.188 41.75C245.792 43.8542 248.083 44.9062 251.062 44.9062ZM276.781 19.2812C279.344 16.1354 282.677 14.5625 286.781 14.5625C293.927 14.5625 297.531 18.5938 297.594 26.6562V49H291.812V26.625C291.792 24.1875 291.229 22.3854 290.125 21.2188C289.042 20.0521 287.344 19.4688 285.031 19.4688C283.156 19.4688 281.51 19.9688 280.094 20.9688C278.677 21.9688 277.573 23.2812 276.781 24.9062V49H271V1H276.781V19.2812Z" fill="#06E243"/>
</g>
<path d="M15.0938 34.6562L16.0833 34.5119L16.0774 34.4714L16.0682 34.4315L15.0938 34.6562ZM15.9688 40.6562L14.9792 40.8006L16.9418 40.8869L15.9688 40.6562ZM17.25 35.25L16.2879 34.9773L16.282 34.9982L16.277 35.0194L17.25 35.25ZM26.25 3.5V2.5H25.4941L25.2879 3.22728L26.25 3.5ZM31.3125 3.5L32.2763 3.23343L32.0735 2.5H31.3125V3.5ZM40.0938 35.25L41.0689 35.0284L41.0637 35.0058L41.0576 34.9834L40.0938 35.25ZM41.3438 40.75L40.3686 40.9716L42.3315 40.9062L41.3438 40.75ZM42.3125 34.625L41.3373 34.4037L41.33 34.436L41.3248 34.4688L42.3125 34.625ZM49.375 3.5V2.5H48.5765L48.3998 3.27872L49.375 3.5ZM55.4062 3.5L56.3781 3.73562L56.6777 2.5H55.4062V3.5ZM44.375 49V50H45.1615L45.3468 49.2356L44.375 49ZM38.9062 49L37.944 49.2721L38.1498 50H38.9062V49ZM29.5312 15.8438L28.552 16.0466L28.5593 16.0815L28.569 16.1158L29.5312 15.8438ZM28.8125 12.375L29.7917 12.1721H27.8333L28.8125 12.375ZM28.0938 15.8438L29.0534 16.125L29.0647 16.0862L29.073 16.0466L28.0938 15.8438ZM18.375 49V50H19.124L19.3346 49.2813L18.375 49ZM12.9062 49L11.9343 49.235L12.1192 50H12.9062V49ZM1.90625 3.5V2.5H0.635683L0.934252 3.73499L1.90625 3.5ZM7.90625 3.5L8.88066 3.27521L8.70182 2.5H7.90625V3.5ZM14.1042 34.8006L14.9792 40.8006L16.9583 40.5119L16.0833 34.5119L14.1042 34.8006ZM16.9418 40.8869L18.223 35.4806L16.277 35.0194L14.9957 40.4256L16.9418 40.8869ZM18.2121 35.5227L27.2121 3.77272L25.2879 3.22728L16.2879 34.9773L18.2121 35.5227ZM26.25 4.5H31.3125V2.5H26.25V4.5ZM30.3487 3.76657L39.1299 35.5166L41.0576 34.9834L32.2763 3.23343L30.3487 3.76657ZM39.1186 35.4716L40.3686 40.9716L42.3189 40.5284L41.0689 35.0284L39.1186 35.4716ZM42.3315 40.9062L43.3002 34.7812L41.3248 34.4688L40.356 40.5938L42.3315 40.9062ZM43.2877 34.8463L50.3502 3.72128L48.3998 3.27872L41.3373 34.4037L43.2877 34.8463ZM49.375 4.5H55.4062V2.5H49.375V4.5ZM54.4344 3.26438L43.4032 48.7644L45.3468 49.2356L56.3781 3.73562L54.4344 3.26438ZM44.375 48H38.9062V50H44.375V48ZM39.8685 48.7279L30.4935 15.5717L28.569 16.1158L37.944 49.2721L39.8685 48.7279ZM30.5105 15.6409L29.7917 12.1721L27.8333 12.5779L28.552 16.0466L30.5105 15.6409ZM27.8333 12.1721L27.1145 15.6409L29.073 16.0466L29.7917 12.5779L27.8333 12.1721ZM27.1341 15.5625L17.4154 48.7187L19.3346 49.2813L29.0534 16.125L27.1341 15.5625ZM18.375 48H12.9062V50H18.375V48ZM13.8782 48.765L2.87825 3.26501L0.934252 3.73499L11.9343 49.235L13.8782 48.765ZM1.90625 4.5H7.90625V2.5H1.90625V4.5ZM6.93184 3.72479L14.1193 34.881L16.0682 34.4315L8.88066 3.27521L6.93184 3.72479ZM76.8438 20.375L76.6794 21.3614L77.8438 21.5555V20.375H76.8438ZM66.2812 25L65.3591 24.6133L65.2812 24.7988V25H66.2812ZM66.2812 49V50H67.2812V49H66.2812ZM60.5 49H59.5V50H60.5V49ZM60.5 15.1875V14.1875H59.5V15.1875H60.5ZM66.125 15.1875L67.1247 15.1635L67.1013 14.1875H66.125V15.1875ZM66.2188 19.0938L65.219 19.1177L65.2988 22.4408L67.0658 19.6253L66.2188 19.0938ZM76.8438 15H77.8438V14.382L77.291 14.1056L76.8438 15ZM77.0081 19.3886C76.0714 19.2325 75.0679 19.1562 74 19.1562V21.1562C74.9738 21.1562 75.8661 21.2258 76.6794 21.3614L77.0081 19.3886ZM74 19.1562C71.9626 19.1562 70.176 19.5908 68.695 20.5202C67.2084 21.4531 66.1032 22.8387 65.3591 24.6133L67.2034 25.3867C67.8134 23.9322 68.6718 22.8959 69.7581 22.2142C70.85 21.529 72.2457 21.1562 74 21.1562V19.1562ZM65.2812 25V49H67.2812V25H65.2812ZM66.2812 48H60.5V50H66.2812V48ZM61.5 49V15.1875H59.5V49H61.5ZM60.5 16.1875H66.125V14.1875H60.5V16.1875ZM65.1253 15.2115L65.219 19.1177L67.2185 19.0698L67.1247 15.1635L65.1253 15.2115ZM67.0658 19.6253C68.7842 16.8871 71.1566 15.5625 74.2812 15.5625V13.5625C70.4476 13.5625 67.4449 15.2588 65.3717 18.5622L67.0658 19.6253ZM74.2812 15.5625C75.3483 15.5625 76.0187 15.7055 76.3965 15.8944L77.291 14.1056C76.5022 13.7112 75.4642 13.5625 74.2812 13.5625V15.5625ZM75.8438 15V20.375H77.8438V15H75.8438ZM88.4688 49V50H89.4688V49H88.4688ZM82.6875 49H81.6875V50H82.6875V49ZM82.6875 15.1875V14.1875H81.6875V15.1875H82.6875ZM88.4688 15.1875H89.4688V14.1875H88.4688V15.1875ZM83.0625 3.84375L82.3204 3.17346L82.3143 3.18016L82.3084 3.18697L83.0625 3.84375ZM83.0625 8.5625L82.3192 9.23146L82.3253 9.2382L82.3314 9.24482L83.0625 8.5625ZM88.4688 48H82.6875V50H88.4688V48ZM83.6875 49V15.1875H81.6875V49H83.6875ZM82.6875 16.1875H88.4688V14.1875H82.6875V16.1875ZM87.4688 15.1875V49H89.4688V15.1875H87.4688ZM83.2188 6.21875C83.2188 5.49806 83.4281 4.94655 83.8166 4.50053L82.3084 3.18697C81.5719 4.03261 81.2188 5.06444 81.2188 6.21875H83.2188ZM83.8046 4.51404C84.1465 4.13552 84.695 3.875 85.625 3.875V1.875C84.305 1.875 83.1452 2.26031 82.3204 3.17346L83.8046 4.51404ZM85.625 3.875C86.555 3.875 87.1035 4.13552 87.4454 4.51404L88.9296 3.17346C88.1048 2.26031 86.945 1.875 85.625 1.875V3.875ZM87.4454 4.51404C87.8493 4.9612 88.0625 5.50809 88.0625 6.21875H90.0625C90.0625 5.05441 89.6924 4.01797 88.9296 3.17346L87.4454 4.51404ZM88.0625 6.21875C88.0625 6.92958 87.8496 7.45894 87.4564 7.88018L88.9186 9.24482C89.6921 8.41606 90.0625 7.38292 90.0625 6.21875H88.0625ZM87.4564 7.88018C87.1169 8.24395 86.5647 8.5 85.625 8.5V10.5C86.9353 10.5 88.0914 10.1311 88.9186 9.24482L87.4564 7.88018ZM85.625 8.5C84.6853 8.5 84.1331 8.24395 83.7936 7.88018L82.3314 9.24482C83.1586 10.1311 84.3147 10.5 85.625 10.5V8.5ZM83.8058 7.89354C83.4279 7.47369 83.2188 6.93979 83.2188 6.21875H81.2188C81.2188 7.37271 81.5721 8.40131 82.3192 9.23146L83.8058 7.89354ZM105.594 7H106.594V6H105.594V7ZM105.594 15.1875H104.594V16.1875H105.594V15.1875ZM111.906 15.1875H112.906V14.1875H111.906V15.1875ZM111.906 19.6562V20.6562H112.906V19.6562H111.906ZM105.594 19.6562V18.6562H104.594V19.6562H105.594ZM106.438 43.6875L105.664 44.3207L105.668 44.3266L105.673 44.3324L106.438 43.6875ZM112.062 44.3125H113.062V43.0755L111.853 43.3347L112.062 44.3125ZM112.062 49L112.327 49.9645L113.062 49.7629V49H112.062ZM99.8125 19.6562H100.812V18.6562H99.8125V19.6562ZM93.6562 19.6562H92.6562V20.6562H93.6562V19.6562ZM93.6562 15.1875V14.1875H92.6562V15.1875H93.6562ZM99.8125 15.1875V16.1875H100.812V15.1875H99.8125ZM99.8125 7V6H98.8125V7H99.8125ZM104.594 7V15.1875H106.594V7H104.594ZM105.594 16.1875H111.906V14.1875H105.594V16.1875ZM110.906 15.1875V19.6562H112.906V15.1875H110.906ZM111.906 18.6562H105.594V20.6562H111.906V18.6562ZM104.594 19.6562V40.625H106.594V19.6562H104.594ZM104.594 40.625C104.594 42.0944 104.895 43.3819 105.664 44.3207L107.211 43.0543C106.855 42.6181 106.594 41.8639 106.594 40.625H104.594ZM105.673 44.3324C106.51 45.3245 107.827 45.6875 109.312 45.6875V43.6875C108.09 43.6875 107.49 43.3838 107.202 43.0426L105.673 44.3324ZM109.312 45.6875C110.084 45.6875 111.081 45.5454 112.272 45.2903L111.853 43.3347C110.71 43.5796 109.874 43.6875 109.312 43.6875V45.6875ZM111.062 44.3125V49H113.062V44.3125H111.062ZM111.798 48.0355C110.355 48.4309 108.965 48.625 107.625 48.625V50.625C109.16 50.625 110.728 50.4025 112.327 49.9645L111.798 48.0355ZM107.625 48.625C105.252 48.625 103.621 47.9165 102.547 46.6381L101.016 47.9244C102.567 49.771 104.831 50.625 107.625 50.625V48.625ZM102.547 46.6381C101.437 45.3171 100.812 43.3597 100.812 40.625H98.8125C98.8125 43.6403 99.5002 46.1204 101.016 47.9244L102.547 46.6381ZM100.812 40.625V19.6562H98.8125V40.625H100.812ZM99.8125 18.6562H93.6562V20.6562H99.8125V18.6562ZM94.6562 19.6562V15.1875H92.6562V19.6562H94.6562ZM93.6562 16.1875H99.8125V14.1875H93.6562V16.1875ZM100.812 15.1875V7H98.8125V15.1875H100.812ZM99.8125 8H105.594V6H99.8125V8ZM121.531 45.125L120.807 45.8144L120.809 45.8169L121.531 45.125ZM119.125 23L118.226 22.5613L118.225 22.5643L119.125 23ZM124.5 16.8125L125.042 17.6527L125.044 17.6515L124.5 16.8125ZM142.25 18.9062L141.485 19.5502L142.25 18.9062ZM145.906 33.75V34.75H146.906V33.75H145.906ZM123 33.75V32.75H121.975L122 33.775L123 33.75ZM125.906 41.8438L125.163 42.5123L125.17 42.5202L125.906 41.8438ZM141.938 40.3438L142.552 39.5548L141.76 38.938L141.146 39.7323L141.938 40.3438ZM145.469 43.0938L146.307 43.6392L146.808 42.8692L146.083 42.3048L145.469 43.0938ZM126.125 21.875L126.854 22.5593L126.858 22.5548L126.125 21.875ZM123.188 29L122.195 28.8785L122.058 30H123.188V29ZM140.125 29V30H141.125V29H140.125ZM140.125 28.5625H141.125V28.5342L141.123 28.5059L140.125 28.5625ZM137.75 21.75L136.996 22.4071L137 22.4119L137.75 21.75ZM132.719 48.625C128.377 48.625 124.919 47.2149 122.253 44.4331L120.809 45.8169C123.893 49.0351 127.894 50.625 132.719 50.625V48.625ZM122.256 44.4356C119.593 41.6381 118.219 37.8731 118.219 33.0312H116.219C116.219 38.2727 117.719 42.5702 120.807 45.8144L122.256 44.4356ZM118.219 33.0312V31.9688H116.219V33.0312H118.219ZM118.219 31.9688C118.219 28.7429 118.829 25.9059 120.025 23.4357L118.225 22.5643C116.879 25.3441 116.219 28.4863 116.219 31.9688H118.219ZM120.024 23.4387C121.242 20.9432 122.916 19.0252 125.042 17.6527L123.958 15.9723C121.501 17.5582 119.591 19.7652 118.226 22.5613L120.024 23.4387ZM125.044 17.6515C127.199 16.2537 129.511 15.5625 132 15.5625V13.5625C129.114 13.5625 126.426 14.3713 123.956 15.9735L125.044 17.6515ZM132 15.5625C136.154 15.5625 139.269 16.9177 141.485 19.5502L143.015 18.2623C140.356 15.1031 136.638 13.5625 132 13.5625V15.5625ZM141.485 19.5502C143.717 22.2025 144.906 26.0849 144.906 31.3438H146.906C146.906 25.8109 145.658 21.4017 143.015 18.2623L141.485 19.5502ZM144.906 31.3438V33.75H146.906V31.3438H144.906ZM145.906 32.75H123V34.75H145.906V32.75ZM122 33.775C122.088 37.2961 123.118 40.2385 125.163 42.5123L126.65 41.1752C124.986 39.324 124.078 36.8705 124 33.725L122 33.775ZM125.17 42.5202C127.242 44.7766 129.888 45.9062 133.031 45.9062V43.9062C130.424 43.9062 128.321 42.9943 126.643 41.1673L125.17 42.5202ZM133.031 45.9062C135.208 45.9062 137.122 45.4614 138.726 44.5182L137.712 42.7943C136.482 43.5178 134.937 43.9062 133.031 43.9062V45.9062ZM138.726 44.5182C140.258 43.6166 141.593 42.4252 142.729 40.9552L141.146 39.7323C140.157 41.0123 139.012 42.0292 137.712 42.7943L138.726 44.5182ZM141.323 41.1327L144.854 43.8827L146.083 42.3048L142.552 39.5548L141.323 41.1327ZM144.631 42.5483C142.001 46.5897 138.084 48.625 132.719 48.625V50.625C138.687 50.625 143.27 48.3062 146.307 43.6392L144.631 42.5483ZM132 18.3125C129.389 18.3125 127.165 19.2823 125.392 21.1952L126.858 22.5548C128.252 21.051 129.945 20.3125 132 20.3125V18.3125ZM125.396 21.1908C123.626 23.0774 122.587 25.6748 122.195 28.8785L124.18 29.1215C124.538 26.2002 125.458 24.0476 126.854 22.5592L125.396 21.1908ZM123.188 30H140.125V28H123.188V30ZM141.125 29V28.5625H139.125V29H141.125ZM141.123 28.5059C140.949 25.4273 140.112 22.9135 138.5 21.0881L137 22.4119C138.222 23.7948 138.968 25.8227 139.127 28.6191L141.123 28.5059ZM138.504 21.0929C136.873 19.2222 134.667 18.3125 132 18.3125V20.3125C134.167 20.3125 135.794 21.0278 136.996 22.4071L138.504 21.0929ZM200.844 8.4375V9.4375H201.844V8.4375H200.844ZM186.219 8.4375V7.4375H185.219V8.4375H186.219ZM186.219 49V50H187.219V49H186.219ZM180.25 49H179.25V50H180.25V49ZM180.25 8.4375H181.25V7.4375H180.25V8.4375ZM165.656 8.4375H164.656V9.4375H165.656V8.4375ZM165.656 3.5V2.5H164.656V3.5H165.656ZM200.844 3.5H201.844V2.5H200.844V3.5ZM200.844 7.4375H186.219V9.4375H200.844V7.4375ZM185.219 8.4375V49H187.219V8.4375H185.219ZM186.219 48H180.25V50H186.219V48ZM181.25 49V8.4375H179.25V49H181.25ZM180.25 7.4375H165.656V9.4375H180.25V7.4375ZM166.656 8.4375V3.5H164.656V8.4375H166.656ZM165.656 4.5H200.844V2.5H165.656V4.5ZM199.844 3.5V8.4375H201.844V3.5H199.844ZM206.406 45.125L205.682 45.8144L205.684 45.8169L206.406 45.125ZM204 23L203.101 22.5613L203.1 22.5643L204 23ZM209.375 16.8125L209.917 17.6527L209.919 17.6515L209.375 16.8125ZM227.125 18.9062L226.36 19.5502L227.125 18.9062ZM230.781 33.75V34.75H231.781V33.75H230.781ZM207.875 33.75V32.75H206.85L206.875 33.775L207.875 33.75ZM210.781 41.8438L210.038 42.5123L210.045 42.5202L210.781 41.8438ZM226.812 40.3438L227.427 39.5548L226.635 38.938L226.021 39.7323L226.812 40.3438ZM230.344 43.0938L231.182 43.6392L231.683 42.8692L230.958 42.3048L230.344 43.0938ZM211 21.875L211.729 22.5593L211.733 22.5548L211 21.875ZM208.062 29L207.07 28.8785L206.933 30H208.062V29ZM225 29V30H226V29H225ZM225 28.5625H226V28.5342L225.998 28.5059L225 28.5625ZM222.625 21.75L221.871 22.4071L221.875 22.4119L222.625 21.75ZM217.594 48.625C213.252 48.625 209.794 47.2149 207.128 44.4331L205.684 45.8169C208.768 49.0351 212.769 50.625 217.594 50.625V48.625ZM207.131 44.4356C204.468 41.6381 203.094 37.8731 203.094 33.0312H201.094C201.094 38.2727 202.594 42.5702 205.682 45.8144L207.131 44.4356ZM203.094 33.0312V31.9688H201.094V33.0312H203.094ZM203.094 31.9688C203.094 28.7429 203.704 25.9059 204.9 23.4357L203.1 22.5643C201.754 25.3441 201.094 28.4863 201.094 31.9688H203.094ZM204.899 23.4387C206.117 20.9432 207.791 19.0252 209.917 17.6527L208.833 15.9723C206.376 17.5582 204.466 19.7652 203.101 22.5613L204.899 23.4387ZM209.919 17.6515C212.074 16.2537 214.386 15.5625 216.875 15.5625V13.5625C213.989 13.5625 211.301 14.3713 208.831 15.9735L209.919 17.6515ZM216.875 15.5625C221.029 15.5625 224.144 16.9177 226.36 19.5502L227.89 18.2623C225.231 15.1031 221.513 13.5625 216.875 13.5625V15.5625ZM226.36 19.5502C228.592 22.2025 229.781 26.0849 229.781 31.3438H231.781C231.781 25.8109 230.533 21.4017 227.89 18.2623L226.36 19.5502ZM229.781 31.3438V33.75H231.781V31.3438H229.781ZM230.781 32.75H207.875V34.75H230.781V32.75ZM206.875 33.775C206.963 37.2961 207.993 40.2385 210.038 42.5123L211.525 41.1752C209.861 39.324 208.953 36.8705 208.875 33.725L206.875 33.775ZM210.045 42.5202C212.117 44.7766 214.763 45.9062 217.906 45.9062V43.9062C215.299 43.9062 213.196 42.9943 211.518 41.1673L210.045 42.5202ZM217.906 45.9062C220.083 45.9062 221.997 45.4614 223.601 44.5182L222.587 42.7943C221.357 43.5178 219.812 43.9062 217.906 43.9062V45.9062ZM223.601 44.5182C225.133 43.6166 226.468 42.4252 227.604 40.9552L226.021 39.7323C225.032 41.0123 223.887 42.0292 222.587 42.7943L223.601 44.5182ZM226.198 41.1327L229.729 43.8827L230.958 42.3048L227.427 39.5548L226.198 41.1327ZM229.506 42.5483C226.876 46.5897 222.959 48.625 217.594 48.625V50.625C223.562 50.625 228.145 48.3062 231.182 43.6392L229.506 42.5483ZM216.875 18.3125C214.264 18.3125 212.04 19.2823 210.267 21.1952L211.733 22.5548C213.127 21.051 214.82 20.3125 216.875 20.3125V18.3125ZM210.271 21.1908C208.501 23.0774 207.462 25.6748 207.07 28.8785L209.055 29.1215C209.413 26.2002 210.333 24.0476 211.729 22.5592L210.271 21.1908ZM208.062 30H225V28H208.062V30ZM226 29V28.5625H224V29H226ZM225.998 28.5059C225.824 25.4273 224.987 22.9135 223.375 21.0881L221.875 22.4119C223.097 23.7948 223.843 25.8227 224.002 28.6191L225.998 28.5059ZM223.379 21.0929C221.748 19.2222 219.542 18.3125 216.875 18.3125V20.3125C219.042 20.3125 220.669 21.0278 221.871 22.4071L223.379 21.0929ZM259.031 38.3438V37.3438H258.116L258.035 38.2552L259.031 38.3438ZM264.5 38.3438L265.499 38.3974L265.555 37.3438H264.5V38.3438ZM257.562 48.0625L257.112 47.1699L257.108 47.1717L257.562 48.0625ZM240.062 45.0312L239.311 45.6912L239.316 45.6966L240.062 45.0312ZM243 16.6875L242.471 15.8391L242.467 15.8413L243 16.6875ZM260.469 17.9688L259.796 18.709L259.799 18.7117L260.469 17.9688ZM264.5 26.8125V27.8125H265.547L265.499 26.7666L264.5 26.8125ZM259.031 26.8125L258.034 26.8885L258.105 27.8125H259.031V26.8125ZM256.531 21.4375L255.84 22.1597L255.845 22.1647L255.85 22.1696L256.531 21.4375ZM244.188 22.5L243.393 21.8925L243.392 21.8937L244.188 22.5ZM251.062 45.9062C253.345 45.9062 255.371 45.2084 257.099 43.808L255.839 42.2545C254.483 43.3541 252.905 43.9062 251.062 43.9062V45.9062ZM257.099 43.808C258.838 42.3979 259.835 40.5927 260.027 38.4323L258.035 38.2552C257.894 39.8448 257.183 41.1646 255.839 42.2545L257.099 43.808ZM259.031 39.3438H264.5V37.3438H259.031V39.3438ZM263.501 38.2901C263.408 40.0216 262.815 41.6874 261.682 43.3002L263.318 44.4498C264.644 42.5626 265.383 40.5409 265.499 38.3974L263.501 38.2901ZM261.682 43.3002C260.555 44.905 259.04 46.1962 257.112 47.1699L258.013 48.9551C260.21 47.8454 261.987 46.345 263.318 44.4498L261.682 43.3002ZM257.108 47.1717C255.207 48.1416 253.196 48.625 251.062 48.625V50.625C253.512 50.625 255.835 50.0667 258.017 48.9533L257.108 47.1717ZM251.062 48.625C246.705 48.625 243.324 47.1881 240.809 44.3659L239.316 45.6966C242.259 48.9994 246.212 50.625 251.062 50.625V48.625ZM240.814 44.3713C238.309 41.5195 237 37.5711 237 32.4062H235C235 37.9081 236.399 42.3763 239.311 45.6912L240.814 44.3713ZM237 32.4062V31.4375H235V32.4062H237ZM237 31.4375C237 28.2695 237.581 25.4919 238.717 23.0828L236.908 22.2297C235.627 24.9456 235 28.0221 235 31.4375H237ZM238.717 23.0828C239.85 20.6809 241.455 18.842 243.533 17.5337L242.467 15.8413C240.045 17.3663 238.192 19.5066 236.908 22.2297L238.717 23.0828ZM243.529 17.5359C245.618 16.2326 248.106 15.5625 251.031 15.5625V13.5625C247.79 13.5625 244.923 14.309 242.471 15.8391L243.529 17.5359ZM251.031 15.5625C254.607 15.5625 257.503 16.6261 259.796 18.709L261.141 17.2285C258.434 14.7697 255.039 13.5625 251.031 13.5625V15.5625ZM259.799 18.7117C262.107 20.7903 263.346 23.4799 263.501 26.8584L265.499 26.7666C265.321 22.8951 263.872 19.6889 261.138 17.2258L259.799 18.7117ZM264.5 25.8125H259.031V27.8125H264.5V25.8125ZM260.028 26.7365C259.844 24.3178 258.91 22.2853 257.212 20.7054L255.85 22.1696C257.152 23.3814 257.885 24.9322 258.034 26.8885L260.028 26.7365ZM257.223 20.7153C255.544 19.1074 253.457 18.3125 251.031 18.3125V20.3125C252.98 20.3125 254.56 20.9342 255.84 22.1597L257.223 20.7153ZM251.031 18.3125C247.817 18.3125 245.228 19.4935 243.393 21.8925L244.982 23.1075C246.397 21.2565 248.37 20.3125 251.031 20.3125V18.3125ZM243.392 21.8937C241.603 24.2411 240.781 27.5436 240.781 31.6562H242.781C242.781 27.7689 243.564 24.9672 244.983 23.1063L243.392 21.8937ZM240.781 31.6562V32.75H242.781V31.6562H240.781ZM240.781 32.75C240.781 36.7656 241.606 40.0127 243.392 42.3563L244.983 41.1437C243.561 39.279 242.781 36.526 242.781 32.75H240.781ZM243.392 42.3563C245.211 44.7422 247.816 45.9062 251.062 45.9062V43.9062C248.35 43.9062 246.372 42.9661 244.983 41.1437L243.392 42.3563ZM276.781 19.2812H275.781V22.0923L277.557 19.9128L276.781 19.2812ZM297.594 26.6562L298.594 26.6562L298.594 26.6485L297.594 26.6562ZM297.594 49V50H298.594V49H297.594ZM291.812 49H290.812V50H291.812V49ZM291.812 26.625H292.813L292.812 26.6165L291.812 26.625ZM290.125 21.2188L289.392 21.8992L289.399 21.9061L290.125 21.2188ZM276.781 24.9062L275.882 24.4683L275.781 24.6756V24.9062H276.781ZM276.781 49V50H277.781V49H276.781ZM271 49H270V50H271V49ZM271 1V0H270V1H271ZM276.781 1H277.781V0H276.781V1ZM277.557 19.9128C279.927 17.0032 282.974 15.5625 286.781 15.5625V13.5625C282.38 13.5625 278.761 15.2676 276.006 18.6497L277.557 19.9128ZM286.781 15.5625C290.166 15.5625 292.542 16.5117 294.098 18.2525C295.675 20.0157 296.564 22.7598 296.594 26.664L298.594 26.6485C298.561 22.4902 297.617 19.1874 295.589 16.9194C293.541 14.6289 290.542 13.5625 286.781 13.5625V15.5625ZM296.594 26.6562V49H298.594V26.6562H296.594ZM297.594 48H291.812V50H297.594V48ZM292.812 49V26.625H290.812V49H292.812ZM292.812 26.6165C292.791 24.0535 292.2 21.9568 290.851 20.5314L289.399 21.9061C290.258 22.814 290.793 24.3215 290.813 26.6335L292.812 26.6165ZM290.858 20.5383C289.513 19.0903 287.494 18.4688 285.031 18.4688V20.4688C287.193 20.4688 288.57 21.0139 289.392 21.8992L290.858 20.5383ZM285.031 18.4688C282.967 18.4688 281.116 19.0229 279.517 20.1518L280.67 21.7857C281.904 20.9146 283.345 20.4688 285.031 20.4688V18.4688ZM279.517 20.1518C277.957 21.2531 276.744 22.6985 275.882 24.4683L277.68 25.3442C278.401 23.864 279.397 22.6844 280.67 21.7857L279.517 20.1518ZM275.781 24.9062V49H277.781V24.9062H275.781ZM276.781 48H271V50H276.781V48ZM272 49V1H270V49H272ZM271 2H276.781V0H271V2ZM275.781 1V19.2812H277.781V1H275.781Z" fill="black" fill-opacity="0.29"/>
<defs>
<filter id="filter0_i" x="0.635681" y="0" width="297.958" height="54.625" filterUnits="userSpaceOnUse" color-interpolation-filters="sRGB">
<feFlood flood-opacity="0" result="BackgroundImageFix"/>
<feBlend mode="normal" in="SourceGraphic" in2="BackgroundImageFix" result="shape"/>
<feColorMatrix in="SourceAlpha" type="matrix" values="0 0 0 0 0 0 0 0 0 0 0 0 0 0 0 0 0 0 127 0" result="hardAlpha"/>
<feOffset dy="4"/>
<feGaussianBlur stdDeviation="2"/>
<feComposite in2="hardAlpha" operator="arithmetic" k2="-1" k3="1"/>
<feColorMatrix type="matrix" values="0 0 0 0 0 0 0 0 0 0 0 0 0 0 0 0 0 0 0.25 0"/>
<feBlend mode="normal" in2="shape" result="effect1_innerShadow"/>
</filter>
</defs>
</svg>
